<mxfile host="app.diagrams.net" modified="2022-04-07T11:26:14.201Z" agent="5.0 (Macintosh; Intel Mac OS X 10_15_7) AppleWebKit/537.36 (KHTML, like Gecko) Chrome/99.0.4844.84 Safari/537.36" etag="YiTL5BoSlmkoOzASgq0u" version="17.4.0" type="github">
  <diagram id="OsWdyKwbPTlSBCUB8FS5" name="Page-1">
    <mxGraphModel dx="946" dy="1080" grid="0" gridSize="10" guides="1" tooltips="1" connect="1" arrows="1" fold="1" page="0" pageScale="1" pageWidth="827" pageHeight="1169" math="1" shadow="0">
      <root>
        <mxCell id="0" />
        <mxCell id="1" parent="0" />
        <mxCell id="Yym6RCBS1PT57qag1aL7-10" value="" style="endArrow=classic;html=1;rounded=0;curved=1;" edge="1" parent="1">
          <mxGeometry width="50" height="50" relative="1" as="geometry">
            <mxPoint x="473" y="-93" as="sourcePoint" />
            <mxPoint x="473" y="40" as="targetPoint" />
            <Array as="points">
              <mxPoint x="500" y="-56" />
              <mxPoint x="496" />
            </Array>
          </mxGeometry>
        </mxCell>
        <mxCell id="Yym6RCBS1PT57qag1aL7-2" value="&lt;font face=&quot;SimSong-Regular&quot;&gt;默认模式&lt;/font&gt;" style="ellipse;whiteSpace=wrap;html=1;" vertex="1" parent="1">
          <mxGeometry x="360" y="-168" width="120" height="80" as="geometry" />
        </mxCell>
        <mxCell id="Yym6RCBS1PT57qag1aL7-5" value="&lt;font face=&quot;SimSong-Regular&quot;&gt;竞争者模式&lt;/font&gt;" style="ellipse;whiteSpace=wrap;html=1;" vertex="1" parent="1">
          <mxGeometry x="360" y="39" width="120" height="80" as="geometry" />
        </mxCell>
        <mxCell id="Yym6RCBS1PT57qag1aL7-9" value="" style="endArrow=classic;html=1;rounded=0;curved=1;labelPosition=right;verticalLabelPosition=middle;align=left;verticalAlign=middle;" edge="1" parent="1">
          <mxGeometry width="50" height="50" relative="1" as="geometry">
            <mxPoint x="368" y="37" as="sourcePoint" />
            <mxPoint x="368" y="-89" as="targetPoint" />
            <Array as="points">
              <mxPoint x="339" y="4" />
              <mxPoint x="341" y="-57" />
            </Array>
          </mxGeometry>
        </mxCell>
        <mxCell id="Yym6RCBS1PT57qag1aL7-30" value="&lt;font&gt;$$ cwnd = \begin{cases}cwnd +&amp;nbsp; (v * \delta^{-1} * \alpha )/cwnd&amp;nbsp; &amp;nbsp;&amp;amp;&amp;nbsp; else&amp;nbsp; \\ \gamma *cwnd&amp;nbsp; &amp;amp; packet \space lost\end{cases}&amp;nbsp; $$&lt;br&gt;&lt;/font&gt;" style="text;html=1;strokeColor=none;fillColor=none;align=center;verticalAlign=middle;whiteSpace=wrap;rounded=0;dashed=1;fontFamily=Tahoma;" vertex="1" parent="1">
          <mxGeometry x="396" y="130" width="100" height="30" as="geometry" />
        </mxCell>
        <mxCell id="Yym6RCBS1PT57qag1aL7-34" value="$$&amp;nbsp;cwnd = \begin{cases}cwnd +&amp;nbsp; v * \delta^{-1} / cwnd&amp;nbsp; &amp;amp; \lambda \le \lambda_{t}&amp;nbsp; \\ cwnd -&amp;nbsp; v * \delta^{-1} / cwnd&amp;nbsp; &amp;amp;&amp;nbsp; \lambda &amp;gt; \lambda_{t}\end{cases} $$" style="text;html=1;strokeColor=none;fillColor=none;align=center;verticalAlign=middle;whiteSpace=wrap;rounded=0;shadow=0;sketch=0;pointerEvents=1;fontFamily=Tahoma;fontSize=12;fontColor=default;" vertex="1" parent="1">
          <mxGeometry x="380" y="-198" width="100" height="30" as="geometry" />
        </mxCell>
        <mxCell id="Yym6RCBS1PT57qag1aL7-41" value="$$&amp;nbsp;TD &amp;gt; TD_{TH} \space || \space&amp;nbsp; FD &amp;gt; FD_{TH} $$" style="text;html=1;strokeColor=none;fillColor=none;align=center;verticalAlign=middle;whiteSpace=wrap;rounded=0;shadow=0;sketch=0;pointerEvents=1;fontFamily=Tahoma;fontSize=12;fontColor=default;" vertex="1" parent="1">
          <mxGeometry x="470" y="-40" width="260" height="30" as="geometry" />
        </mxCell>
        <mxCell id="Yym6RCBS1PT57qag1aL7-42" value="$$ W_{current} &amp;gt;W_{last\_max} \space&lt;br&gt;&amp;nbsp; \&amp;amp;\&amp;amp; \space&amp;nbsp; t_{itv}&amp;nbsp; &amp;gt; t_{last\_itv}&amp;nbsp;&lt;br&gt;&amp;nbsp;$$" style="text;html=1;strokeColor=none;fillColor=none;align=center;verticalAlign=middle;whiteSpace=wrap;rounded=0;shadow=0;sketch=0;pointerEvents=1;fontFamily=Tahoma;fontSize=12;fontColor=default;" vertex="1" parent="1">
          <mxGeometry x="80" y="-40" width="260" height="30" as="geometry" />
        </mxCell>
      </root>
    </mxGraphModel>
  </diagram>
</mxfile>
